<svg xmlns="http://www.w3.org/2000/svg" height="30" viewBox="0 0 64 64" width="30"><path d="M63 36.387V35c0-.444-.09-10.193-6.968-14.141C57.841 18.756 59 16.128 59 13c0-1.206-.799-3-3-3s-3 1.794-3 3c0 .3-.031.589-.077.872-.234-1.946-.939-4.081-.975-4.188l-.351-1.052-2.11.955c-1.687-5.62-7.877-8.381-8.158-8.503l-.773-.338-.463.707c-.155.237-3.394 5.268-1.811 9.547H35.62l.993 3.031C36.41 14.016 36.207 14 36 14c-.349 0-.693.027-1.032.076-.286-4.366-2.583-9.01-6.726-10.046-1.73-.433-3.072-.2-4.057.235A11.5 11.5 0 0019 3c-3.966 0-6.286 2.734-7.331 5.191-2.018.644-4.253 2.3-5.588 5.415l1.838.788c.787-1.836 1.933-3.029 3.095-3.727A4.36 4.36 0 0011 11c0 2.057 1.154 3.063 2.235 3.318 1.416.334 2.951-.454 3.659-1.871.782-1.564.308-2.656-.045-3.167-.561-.814-1.56-1.308-2.772-1.398C14.991 6.4 16.552 5 19 5c1.178 0 2.323.245 3.332.635C21.504 6.589 21 7.828 21 9c0 1.463.92 2.828 2.288 3.395 1.21.501 2.487.244 3.419-.688 1.188-1.188 1.509-2.647.903-4.109-.265-.64-.697-1.245-1.254-1.793.438-.012.91.043 1.401.166 3.305.826 5.127 5.027 5.232 8.695-1.293.597-2.429 1.575-3.294 2.872A7.931 7.931 0 0025 16c-4.411 0-8 3.589-8 8v.3c-2.906.872-5 3.589-5 6.682 0 1.215.32 2.389.907 3.424C10.63 35.251 9 37.42 9 39.926c0 .755.123 1.462.35 2.11A6.008 6.008 0 004 48a5.96 5.96 0 001.017 3.344C2.682 52.165 1 54.387 1 57c0 3.309 2.691 6 6 6a5.976 5.976 0 005.307-3.238A6.063 6.063 0 0015.96 61a6.048 6.048 0 005.371-3.268A6.019 6.019 0 0025 59c2.742 0 5.054-1.85 5.768-4.366A6.977 6.977 0 0036 57c3.62 0 6.607-2.763 6.964-6.291A6.953 6.953 0 0047 52c3.859 0 7-3.14 7-7v-1.486c1.03-.762 3.59-2.847 5.013-5.664C60.116 38.742 61 39.911 61 41c0 .877-.173 1.584-.434 2.139a2.85 2.85 0 00-.215-.312c-.67-.836-1.818-1.155-2.861-.79C56.585 42.355 56 43.125 56 44c0 1.619 1.051 2.752 2.558 2.759-.276.717-.718 1.61-1.405 2.711l1.695 1.06c1.217-1.946 1.818-3.461 2.04-4.639C62.092 44.937 63 43.236 63 41c0-2.015-1.491-3.865-3.255-5.104.046-.182.098-.363.132-.55zM15.203 10.414c.226.328.071.8-.098 1.139-.334.668-.977.921-1.41.819C13.067 12.224 13 11.363 13 11c0-.253.06-.643.19-1.105l.074-.008c1.023-.099 1.708.193 1.939.527zm10.09-.121c-.36.359-.776.445-1.239.254C23.53 10.33 23 9.729 23 9c0-.7.366-1.692 1.18-2.391.773.542 1.337 1.161 1.583 1.755.291.704.142 1.317-.47 1.929zm33.278 34.466c-.186 0-.571 0-.577-.736.023-.039.168-.134.376-.134h.015c.211.004.368.1.468.284.036.067.104.229.126.515a1.328 1.328 0 01-.408.071zM55 13.012c.012-.462.194-1.012 1-1.012s.988.55 1 1c0 7.799-8.26 11.4-13.656 11.928a7.049 7.049 0 00.586-1.998C47.858 22.442 55 19.084 55 13.012zM29.132 48.658a5.86 5.86 0 00-2.982-1.538A4.887 4.887 0 0125 43.976c0-.317.026-.608.084-.89C25.509 40.719 27.576 39 30 39c.274 0 .514.018.753.059 2.124.316 3.788 1.98 4.165 4.033a7.01 7.01 0 00-5.786 5.566zm-9.461 1.618c-.03-.024-.055-.051-.086-.075-1.031-.776-2.298-1.172-3.585-1.178V48c0-1.106-.306-2.14-.83-3.03C15.943 43.85 17.544 43 19 43c.14 0 .278.006.461.033 2.018.222 3.539 1.882 3.539 3.861 0 .174-.034.32-.055.478a6.049 6.049 0 00-3.274 2.904zM25 32c.908 0 1.791.244 2.557.708a4.963 4.963 0 012.389 3.62c.036.202.054.422.054.672-3.372 0-6.248 2.383-6.864 5.65a5.915 5.915 0 00-2.3-1.366c.075-.322.125-.647.14-.974.024-.152.024-.288.024-.384a5.785 5.785 0 00-.972-3.203C20.175 34.097 22.338 32 25 32zm4-1a4.958 4.958 0 012.022-4.009 4.44 4.44 0 011.204-.661A4.893 4.893 0 0134 26a5 5 0 014.418 2.653A4.9 4.9 0 0139 31v1.306a6.966 6.966 0 00-4.518 4.149 6.627 6.627 0 00-.445 1.833A6.894 6.894 0 0032 37.297V37c0-.372-.028-.708-.079-.985a6.908 6.908 0 00-2.897-4.725c-.007-.098-.024-.182-.024-.29zm11.668-2.096a6.993 6.993 0 00-.223-.618c.157-.109.297-.229.445-.345-.081.322-.154.643-.222.963zm-.574 15.004C37.769 43.48 36 41.447 36 39c0-.637.113-1.241.343-1.809a4.98 4.98 0 013.484-3.049c.065-.016.132-.023.198-.036-.023.509-.025.84-.025.894v1.618l3.934-1.967a8.686 8.686 0 00.985 3.665 7.016 7.016 0 00-4.825 5.592zM38.38 13h3.546l-1.174-1.593c-1.931-2.621-.287-6.458.571-8.085 1.741.962 5.788 3.619 6.479 7.84l.211 1.287 2.357-1.066c.276.998.63 2.501.63 3.617v2.372c-1.404 1.404-3.318 2.408-5.016 2.997.194-.451.385-.951.548-1.487l3.175-3.175-1.414-1.414-1.308 1.308c-.156-3.119-2.067-6.029-2.153-6.156l-1.664 1.109c.017.024 1.455 2.212 1.769 4.575a8.507 8.507 0 00-1.49-1.024l-.895 1.789c.014.007 1.311.683 2.193 1.951-.241.94-.61 1.802-.933 2.449a8.024 8.024 0 00-4.926-5.747zM36 16c3.309 0 6 2.691 6 6 0 1.747-.958 3.397-2.598 4.569A6.984 6.984 0 0034 24c-.335 0-.67.032-1 .08V24a7.979 7.979 0 00-1.817-5.054C32.306 17.072 34.029 16 36 16zm-11 2c1.511 0 2.953.566 4.065 1.598A5.973 5.973 0 0131 24v.696a6.3 6.3 0 00-1.187.702 7.017 7.017 0 00-2.765 4.771c-.006.047-.004.097-.008.144-.362-.111-.73-.2-1.108-.251A7 7 0 0019 24c0-3.309 2.691-6 6-6zm-6.746 8.056a4.995 4.995 0 015.656 4.038 7.015 7.015 0 00-5.611 4.889 6.07 6.07 0 00-3.247-.98A4.92 4.92 0 0114 30.982c0-2.439 1.823-4.556 4.254-4.926zm-3.557 9.964c.097-.014.199-.02.303-.02 1.253 0 2.451.589 3.208 1.581.518.673.792 1.484.796 2.407l-.022.181c-.01.28-.068.563-.148.844-1.885.054-3.797 1.013-4.972 2.402a5.99 5.99 0 00-2.165-1.167c-.451-.613-.697-1.407-.697-2.322 0-2.022 1.599-3.735 3.697-3.906zM10 44c2.206 0 4 1.794 4 4v1.351a6.159 6.159 0 00-1.443.684c-.145.103-.279.205-.469.351a6.175 6.175 0 00-1.466 1.846 5.996 5.996 0 00-3.207-1.207C6.523 50.263 6 49.183 6 48c0-2.206 1.794-4 4-4zm.936 13.713A3.993 3.993 0 017 61c-2.206 0-4-1.794-4-4s1.794-4 4-4c1.292 0 2.513.631 3.264 1.687a3.992 3.992 0 01.672 3.026zM15.96 59a4.07 4.07 0 01-3.018-1.345c.024-.221.058-.446.058-.655a5.963 5.963 0 00-.901-3.129 4.066 4.066 0 011.254-1.935c.118-.09.237-.18.334-.25 1.436-.944 3.375-.881 4.694.112.311.235.579.501.817.81A3.9 3.9 0 0120 55c0 2.206-1.812 4-4.04 4zM25 57c-1.167 0-2.272-.537-3.03-1.421a5.888 5.888 0 00-.823-3.625 4.033 4.033 0 012.965-2.854c.38-.095.841-.146 1.301-.072l.109.012a3.907 3.907 0 012.616 1.484A3.92 3.92 0 0129 53c0 2.206-1.794 4-4 4zm11-2c-2.757 0-5-2.243-5-5s2.243-5 5-5 5 2.243 5 5-2.243 5-5 5zm11-5c-2.757 0-5-2.243-5-5 0-2.459 1.788-4.497 4.13-4.912 1.688 1.947 4.026 3.126 5.87 3.679V45c0 2.757-2.243 5-5 5zm5.798-8.085c-1.668-.479-7.576-2.624-6.806-8.791l.231-1.854-4.148 2.075c.117-1.621.428-4.16 1.205-6.396a19.917 19.917 0 003.997-.739l-1.172 2.343 1.789.895 1.298-2.596c.743 1.141 1.436 2.725 1.949 4.609-1.07 1.229-1.985 3.908-2.089 4.223l1.896.633c.179-.536.466-1.285.785-1.976A25.59 25.59 0 0152 38h2c0-3.42-.625-6.471-1.517-8.899.938.108 2.142.33 3.07.794l.895-1.789c-1.649-.824-3.834-1.034-4.864-1.087a12.723 12.723 0 00-1.225-1.969c1.514-.713 2.947-1.618 4.197-2.71 4.845 2.44 6.051 8.477 6.348 11.241L58 32.613V34c0 3.741-3.979 7.001-5.202 7.915z" data-original="#000000" class="active-path" data-old_color="#000000" fill="#313131"/></svg>