<svg xmlns="http://www.w3.org/2000/svg" viewBox="0 0 512 512" width="45" height="45"><g data-name="Cannabis Seeds"><path d="M282.127 344.479c-3.71 4.011-1.462 6.206-2.127 39.521a8 8 0 0016 0v-30.807c14.163-13.474 48.083-31.623 71.3-31.623 31.476 0 56.268 32.979 63.117 43.087a8 8 0 0013.246-8.974c-10.209-15.068-38.087-50.113-76.363-50.113-30.028 0-70.5 23.044-85.173 38.909zM320 400c-62.613 0-93.551 49.729-94.837 51.846a8.043 8.043 0 000 8.308C226.449 462.271 257.387 512 320 512s93.551-49.729 94.837-51.846a8.019 8.019 0 001.1-5.135C415.815 454.061 379.143 400 320 400zm48 64h23.458c-40.483 43.167-103.349 42.3-142.921 0H336a8 8 0 000-16h-87.458c40.48-43.164 103.347-42.3 142.92 0H368a8 8 0 000 16z" data-original="#000000" class="active-path" data-old_color="#000000" fill="#FFF"/><path d="M510.837 427.845c-23.34-38.369-75.189-55.157-118.356-35.7a8 8 0 006.577 14.587c27.515-12.4 62.545-8.376 88.122 17.267H440a8 8 0 000 16h47.17c-9.877 9.9-27.083 22.425-51.815 23.864-10.52.611-9.682 16.6.93 15.972C479.534 477.322 512 442.043 512 432a8.138 8.138 0 00-1.163-4.155zM200 432H48v-16h184a8 8 0 000-16H52.944l24-48H120a8 8 0 000-16H80c-.2-229.916.513-216.258-.572-218.971L51.816 48H104a8 8 0 000-16H48V16h288v16H168a8 8 0 000 16h170.584l25.6 64H344a8 8 0 000 16h24v152a8 8 0 0016 0c-.076-169.37.281-160.952-.633-163.122L352 38.459V8a8 8 0 00-8-8H40a8 8 0 00-8 8v30.459C-.8 120.991 0 117.165 0 120c.3 237.806-.758 224.374.845 227.578L32 409.888V440a8 8 0 008 8h160a8 8 0 000-16zM16 342.111v-220.57l24-60 24 60v220.57l-24 48z" data-original="#000000" class="active-path" data-old_color="#000000" fill="#FFF"/><path d="M223.971 336a8 8 0 008-8v-42.908c20.782 15.084 52.938 20.108 76.362 17.8 5.092-.506 9.429-5.935 5.716-12.68a104.365 104.365 0 00-33.186-36.614c48.775-7.665 74.418-35.8 70.767-47.9a8 8 0 00-8.651-5.629l-47.021 5.877a194.978 194.978 0 0023.973-75.554 8.006 8.006 0 00-11.789-7.828c-18.673 10.178-38.049 31.388-57.8 63.22.053-40.53-7.865-68.34-18.568-99.551-1.871-8.265-13.731-8.275-15.6 0-9.925 28.974-18.624 56.972-18.566 99.55-19.753-31.833-39.129-53.042-57.8-63.221a8.006 8.006 0 00-11.789 7.828 195 195 0 0023.972 75.554l-47.02-5.877c-5.894-.733-14.715 5.469-3.629 20.391 6.438 8.666 24.424 26.647 65.745 33.141-14.156 9.466-25.029 21.949-33.366 36.94a8.005 8.005 0 005.9 12.354c2.168.213 46.024 4.23 76.363-17.787V328a8 8 0 007.987 8zm-69.1-48.83c8.657-11.568 23.757-26.283 46.821-31.357 9.3-2.046 7.8-15.813-1.718-15.813-26.479 0-58.8-4.785-78.813-21.79l45.821 5.728a8.01 8.01 0 007.294-12.865c-.22-.283-19.21-25.031-27.449-63.811 14.061 12.571 32.415 35.389 54.062 76.657 4.149 7.908 16.235 4.027 15.009-4.815a250.933 250.933 0 018.073-106.004 250.9 250.9 0 018.076 106c-1.227 8.845 10.862 12.72 15.008 4.815 21.648-41.268 40-64.086 54.062-76.657-8.238 38.779-27.227 63.527-27.44 63.8a8.006 8.006 0 007.286 12.876l45.82-5.728c-20.006 17-52.321 21.79-78.812 21.79-9.521 0-11.012 13.769-1.719 15.813 23.065 5.074 38.164 19.789 46.821 31.357-17.448-.65-47.2-4.992-62.689-25.766a8 8 0 00-12.826 0c-15.493 20.782-45.245 25.121-62.69 25.77z" data-original="#000000" class="active-path" data-old_color="#000000" fill="#FFF"/><circle cx="136" cy="40" r="8" data-original="#000000" class="active-path" data-old_color="#000000" fill="#FFF"/><circle cx="152" cy="344" r="8" data-original="#000000" class="active-path" data-old_color="#000000" fill="#FFF"/></g></svg>