<svg xmlns="http://www.w3.org/2000/svg" viewBox="0 0 512 512" width="40" height="40"><path d="M506.886 374.729c-2.25-1.365-55.865-33.552-122.885-33.552-6.901 0-13.75.273-20.523.689 15.727-8.539 31.572-18.428 46.232-29.876 70.79-55.271 100.54-145.063 101.769-148.855a10.691 10.691 0 00-2-10.188c-2.396-2.802-6.021-4.104-9.719-3.656-3.063.458-75.646 11.865-142.083 72.25-17.954 16.323-34.208 34.449-48.491 52.256C315.52 249.091 320 221.378 320 191.844 320 89.688 267.167 8.073 264.917 4.656c-3.938-6-13.896-6-17.833 0C244.833 8.073 192 89.688 192 191.844c0 29.534 4.48 57.247 10.814 81.954-14.283-17.807-30.536-35.934-48.491-52.256-66.438-60.386-139.021-71.792-142.083-72.25-3.635-.448-7.312.854-9.719 3.656a10.69 10.69 0 00-2 10.188C1.75 166.927 31.5 256.719 102.292 311.99c14.66 11.448 30.505 21.337 46.232 29.876-6.773-.415-13.622-.689-20.523-.689-67.021 0-120.635 32.188-122.885 33.552a10.686 10.686 0 00-5.115 9.146 10.662 10.662 0 005.177 9.115c2.28 1.364 56.624 33.52 122.822 33.52 14.766 0 29.318-2.121 43.143-5.341-22.628 26.651-21.87 57.598-21.799 59.133a10.688 10.688 0 004.469 8.229 10.642 10.642 0 006.188 1.979c1.021 0 2.042-.146 3.042-.438 1.604-.479 39.771-12.115 69.021-45.917 5.244-6.059 9.471-12.064 13.271-17.958v74.979a10.66 10.66 0 0010.667 10.667 10.66 10.66 0 0010.667-10.667v-74.979c3.799 5.895 8.027 11.9 13.271 17.958 29.25 33.802 67.417 45.438 69.021 45.917 1 .292 2.021.438 3.042.438 2.198 0 4.365-.677 6.188-1.979a10.688 10.688 0 004.469-8.229c.07-1.536.837-32.563-21.878-59.234 13.9 3.279 28.496 5.443 43.221 5.443 67.021 0 120.635-32.188 122.885-33.552 3.177-1.938 5.115-5.396 5.115-9.115s-1.94-7.177-5.117-9.115zM372.031 237.333c41.896-38.094 87.208-55.313 112.01-62.448-12.156 28.354-40.229 83.417-87.458 120.292-39.115 30.542-88.646 50.156-118.01 60.021 17.427-28.854 51.052-79.313 93.458-117.865zm-256.614 57.844c-47.125-36.792-75.25-91.896-87.438-120.281 24.802 7.135 70.104 24.354 111.99 62.438 42.354 38.5 76 88.99 93.448 117.854-29.365-9.865-78.886-29.48-118-60.011zm12.583 110c-38.542 0-73.437-12.406-93.646-21.396 20.01-8.958 54.594-21.271 93.646-21.271 38.677 0 77.188 7.948 100.927 14.021-23.073 12.032-61.989 28.646-100.927 28.646zm87.938 25.021c-14.146 16.333-31.021 26.76-43.094 32.76 2.927-11.438 9.75-26.729 25.552-38.583 16.021-12.01 29-20.969 38.875-27.438-4.448 9.834-11.198 21.542-21.333 33.261zm41.937-82.056c-.629 1.064-1.296 2.177-1.875 3.171-.579-.993-1.246-2.107-1.875-3.171-15.107-29.094-40.792-88.369-40.792-156.298 0-70.656 27.906-132.302 42.667-159.979 14.76 27.677 42.667 89.323 42.667 159.979 0 67.929-25.685 127.204-40.792 156.298zm38.188 82.056a137.14 137.14 0 01-21.26-33.208c9.875 6.458 22.823 15.406 38.802 27.385 15.885 11.917 22.698 27.208 25.604 38.656-12.042-5.968-28.896-16.375-43.146-32.833zM384 405.177c-38.427 0-77.531-16.646-100.792-28.698 23.729-6.052 62.125-13.969 100.792-13.969 38.99 0 73.708 12.375 93.75 21.344-20 8.969-54.635 21.323-93.75 21.323z" data-original="#000000" class="active-path" data-old_color="#000000" fill="#89D32A"/></svg>