<svg xmlns="http://www.w3.org/2000/svg" viewBox="0 0 512 512" width="45" height="45"><g data-name="Cannabis Oil"><path d="M359.96 341.407a8 8 0 00-9.281-8.69 108.751 108.751 0 00-46.767 19.716c.635-17.634-2-43.1-17.026-68.5a8.005 8.005 0 00-13.772 0c-15.026 25.406-17.66 50.864-17.027 68.5a108.709 108.709 0 00-46.766-19.709 8 8 0 00-9.281 8.69c3.012 29.981 24.27 48.1 40.149 57.593-20.079 10.988-35.22 34.7-33.372 41.93a8 8 0 006.9 5.975c1.644.175 33.825 3.322 58.279-13.142V472a8 8 0 0016 0v-38.233c16.45 11.073 40.623 15.018 58.3 13.138a8.005 8.005 0 006.173-11.793c-.687-1.047-8.97-23.149-32.663-36.112 15.884-9.493 37.141-27.612 40.154-57.593zm-62.907 50.9c-7.638 2.588-7.044 13.645.842 15.388 16.924 3.741 27.58 13.994 34.007 23.331-36.79-2.379-43-20.092-48.231-22.8-12.789-6.578-9.975 19.851-55.559 22.8 6.421-9.336 17.07-19.591 33.993-23.332 7.852-1.736 8.49-12.771.848-15.386-.385-.132-34.378-12.093-44.464-41.038 27.638 8.4 41.853 26.813 42 27 5.255 7.045 16.446 1.592 14.127-6.906-.1-.353-8.28-31.454 5.388-65.343 13.669 33.889 5.484 64.988 5.393 65.324-2.36 8.489 8.841 14 14.119 6.928.156-.209 14.166-18.6 42-27.017-10.043 28.844-43.828 40.826-44.463 41.044zm-69.485-334.63a8 8 0 0015.644-3.354L235 16h92.2l-8.216 38.323a8 8 0 1015.645 3.354c9.222-47.725 12.9-49.5 8.689-54.706A8 8 0 00337.1 0h-112a8 8 0 00-7.822 9.677z" data-original="#000000" class="active-path" data-old_color="#000000" fill="#FFF"/><path d="M425.907 144a8 8 0 100 16c50.125 0 84.029 51.216 64.447 97.337a186.4 186.4 0 01-51.054 69.228c-5.538 4.678-1.372 8.46.8 25.195-16.764 8.012-40.511 16.526-66 16.731a8 8 0 10.129 16c21.579-.174 44.047-5.425 66.936-15.6C440.776 436.9 385.512 496 313.1 496h-48c-102.836 0-158.614-113.684-110.549-191.021 57.8 3.69 73.612 17.493 80.2 17.493 8.634 0 11.118-11.866 3.215-15.329-21.467-9.409-43.648-14.8-72.154-17.356a124.951 124.951 0 0132.31-26.279A98.583 98.583 0 00248 178.252c1.64-20.086-9.55-46.32-31.127-60.017L200 107.589V96h35.773l5.5 25.677A8 8 0 00249.1 128h64a8 8 0 007.822-6.323L326.427 96H344v20.687c-11.945 12.834-16 13.806-16 19.313v16a8 8 0 008 8h24a8 8 0 000-16h-16v-4.687c11.945-12.834 16-13.806 16-19.313V88a8 8 0 00-8-8H192a8 8 0 00-8 8c.987 20.541-2.484 26.843 3.73 30.765l20.51 12.945c40.624 27.177 26.162 92.655-18.057 117.9-91.722 52.374-86.894 171.63-16.283 230.242 52.88 43.892 108.4 29.141 139.2 32.148 93.158 0 161.108-86.841 140.312-176.5a202.553 202.553 0 0051.672-71.914C529.109 207 487.585 144 425.907 144zM310.063 96l-3.43 16h-51.066l-3.43-16z" data-original="#000000" class="active-path" data-old_color="#000000" fill="#FFF"/><path d="M423.386 303a8 8 0 0012.272 1.847 162.751 162.751 0 0036.518-48.427c18.282-36.986-9.014-80.42-50.408-80.42H367.28a39.326 39.326 0 00-39.273 38.565c-1.069 8.955 4.963 31.344 28.055 38.355 30.516 9.266 53.167 26.115 67.324 50.08zM367.28 192h54.488c29.564 0 49.077 31.007 36.064 57.328a146.558 146.558 0 01-26.14 37.088c-16.321-23.048-40.153-39.445-70.982-48.806-26.104-7.926-19.881-45.61 6.57-45.61zM144 214.667c0-32.731-45.438-86.58-66.232-108.211a8 8 0 00-11.536 0c-.395.411-9.8 10.226-21.51 24.463a8 8 0 1012.359 10.162 491.46 491.46 0 0114.942-17.325C91.745 145.463 128 190.383 128 214.667 128 246.28 102.878 272 72 272s-56-25.72-56-57.333c0-6.695 3.032-16.015 8.77-26.951a8 8 0 00-14.17-7.432C3.468 193.881 0 205.127 0 214.667 0 255.1 32.3 288 72 288s72-32.9 72-73.333z" data-original="#000000" class="active-path" data-old_color="#000000" fill="#FFF"/><path d="M104 206.684a8 8 0 00-8 8C96 228.644 85.234 240 72 240a8 8 0 000 16c36.922 0 50.4-49.316 32-49.316zM124 104c24.262 0 44-18.941 44-42.222 0-21.214-32.016-53.306-38.434-59.524a8 8 0 00-11.132 0C112.016 8.472 80 40.564 80 61.778 80 85.059 99.738 104 124 104zm0-84.621c13.065 13.746 28 33.067 28 42.4C152 76.237 139.439 88 124 88S96 76.237 96 61.778c0-9.314 14.936-28.642 28-42.399z" data-original="#000000" class="active-path" data-old_color="#000000" fill="#FFF"/><circle cx="32" cy="160" r="8" data-original="#000000" class="active-path" data-old_color="#000000" fill="#FFF"/><circle cx="392" cy="152" r="8" data-original="#000000" class="active-path" data-old_color="#000000" fill="#FFF"/></g></svg>