<svg xmlns="http://www.w3.org/2000/svg" height="45" viewBox="0 0 512 512" width="45"><g data-name="Cannabis Medical"><path d="M439.037 344.776l-47.02 5.878a194.992 194.992 0 0023.972-75.554 8.006 8.006 0 00-11.789-7.828c-18.673 10.179-38.05 31.39-57.8 63.222.055-40.448-7.842-68.279-18.566-99.552-1.873-8.269-13.72-8.317-15.6 0-.152.442-.51 1.4-.832 2.257a275.607 275.607 0 00-17.736 97.3c-19.752-31.832-39.128-53.041-57.8-63.221a8 8 0 00-11.796 7.822 194.975 194.975 0 0023.972 75.555l-47.021-5.878c-5.856-.726-14.738 5.44-3.629 20.391 6.439 8.666 24.424 26.647 65.745 33.142-14.155 9.465-25.029 21.948-33.366 36.938a8.006 8.006 0 005.9 12.355c23.348 2.323 55.572-2.707 76.362-17.795V472a8 8 0 0016 0v-42.184c30.338 22.017 74.195 18 76.363 17.786 5-.5 9.5-5.836 5.715-12.681a104.377 104.377 0 00-33.186-36.612c48.775-7.666 74.418-35.8 70.767-47.9a8.008 8.008 0 00-8.655-5.633zm-95.008 39.938c-9.52 0-11.011 13.769-1.718 15.813 23.081 5.078 38.185 19.81 46.839 31.383-17.425-.624-47.158-4.935-62.708-25.791a8 8 0 00-12.826 0c-15.492 20.777-45.245 25.116-62.69 25.766 8.658-11.569 23.758-26.283 46.822-31.358 9.3-2.045 7.8-15.813-1.719-15.813-26.489 0-58.8-4.786-78.813-21.789l45.821 5.727a8.01 8.01 0 007.3-12.865c-.221-.283-19.211-25.031-27.449-63.81 14.06 12.571 32.415 35.39 54.062 76.657 4.145 7.907 16.235 4.027 15.008-4.816a250.89 250.89 0 018.076-106 250.927 250.927 0 018.076 106.005c-1.226 8.845 10.863 12.722 15.008 4.816 21.649-41.268 40-64.086 54.063-76.658-8.239 38.78-27.228 63.527-27.441 63.8a8.006 8.006 0 007.286 12.876l45.821-5.727c-20.011 16.995-52.326 21.784-78.818 21.784z" data-original="#000000" class="active-path" data-old_color="#000000" fill="#FFF"/><path d="M288.058 496H176V344a8 8 0 00-8-8H16V176h152a8 8 0 008-8V88a8 8 0 00-16 0v72H8a8 8 0 00-8 8v176a8 8 0 008 8h152v152a8 8 0 008 8h120.058a8 8 0 000-16zM504 160H352V8a8 8 0 00-8-8H168a8 8 0 00-8 8v16a8 8 0 0016 0v-8h160v152a8 8 0 008 8h152v160h-23.942a8 8 0 000 16H504a8 8 0 008-8V168a8 8 0 00-8-8z" data-original="#000000" class="active-path" data-old_color="#000000" fill="#FFF"/><circle cx="320" cy="504.5" r="8" data-original="#000000" class="active-path" data-old_color="#000000" fill="#FFF"/><circle cx="168" cy="56" r="8" data-original="#000000" class="active-path" data-old_color="#000000" fill="#FFF"/></g></svg>