<svg xmlns="http://www.w3.org/2000/svg" viewBox="0 0 512 512" width="40" height="40"><path d="M296 88a198.449 198.449 0 00-128 46.317V130a18.021 18.021 0 00-18-18h-.234l-4.74-14.219A19.974 19.974 0 01144 91.456V56a40 40 0 00-80 0v35.456a19.974 19.974 0 01-1.026 6.325L58.234 112H58a18.021 18.021 0 00-18 18v46a8 8 0 00-8 8v32a8 8 0 008 8h8v8a8.039 8.039 0 01-3.2 6.4L32 248a40.191 40.191 0 00-16 32v182a34.038 34.038 0 0034 34h108a34.038 34.038 0 0034-34v-3.132A198.542 198.542 0 00296 488c110.28 0 200-89.72 200-200S406.28 88 296 88zM78.152 102.84A35.925 35.925 0 0080 91.456V56a24 24 0 0148 0v35.456a35.925 35.925 0 001.848 11.384L132.9 112H75.1zM56 130a2 2 0 012-2h92a2 2 0 012 2v46h-16v-32h-16v32h-8v-32H96v32h-8v-32H72v32H56zm-8 62h112v16H48zm128 270a18.021 18.021 0 01-18 18H50a18.021 18.021 0 01-18-18v-38h144zm0-54H32v-96h144zm0-112H32v-16h24a8 8 0 000-16H38.132a23.745 23.745 0 013.468-3.2l12.8-9.6A24.116 24.116 0 0064 232v-8h80v8a24.116 24.116 0 009.6 19.2l12.8 9.6A24.116 24.116 0 01176 280zm120 176a182.653 182.653 0 01-104-32.193v-89.479a175.226 175.226 0 0044.707 9.238 97.76 97.76 0 00-25.457 31.921l-2.467 4.935a8 8 0 008.471 11.469l15.057-2.51a98 98 0 0059.154-33.916l4.474-5.369V432a8 8 0 0016 0v-65.977l4.535 5.442a98.007 98.007 0 0059.153 33.916l15.058 2.51a8 8 0 008.471-11.469l-2.468-4.935a97.774 97.774 0 00-25.451-31.917 174.887 174.887 0 0058.244-14.585l21.768-9.674a8 8 0 00-.95-14.974l-7.711-2.313a175.628 175.628 0 00-79.315-4.88A241.745 241.745 0 00416.5 226.3l7.051-20.067a8 8 0 00-11.563-9.572l-2.419 1.4a241.4 241.4 0 00-74.018 66.645 222.778 222.778 0 00-24.513-116.4 7.917 7.917 0 00-7.165-4.306 8 8 0 00-7.089 4.422 231.767 231.767 0 00-24.012 116.809 241.347 241.347 0 00-74.4-67.172l-2.418-1.4a8 8 0 00-11.563 9.572l7.051 20.067a241.751 241.751 0 0053.177 86.8 174.585 174.585 0 00-52.619-.837V280a40.191 40.191 0 00-16-32l-12.8-9.6a8.039 8.039 0 01-3.2-6.4v-8h8a8 8 0 008-8v-32a8 8 0 00-8-8v-20.167A182.709 182.709 0 01296 104c101.458 0 184 82.542 184 184s-82.542 184-184 184zm-16.79-148.933a225.763 225.763 0 01-72.083-100.417 225.4 225.4 0 0172 83.836 8 8 0 0014.946-5.4 215.811 215.811 0 0110-129.945 209.544 209.544 0 0110.014 129.477 8 8 0 0014.932 5.447 225.445 225.445 0 0171.791-83.413 225.8 225.8 0 01-72.083 100.416 8 8 0 007.791 13.752 159.817 159.817 0 0187.578-6.951l-1.115.5a158.931 158.931 0 01-81.443 12.764 8 8 0 00-3.667 15.444 81.7 81.7 0 0139.089 30.8 82.007 82.007 0 01-48.2-28.151l-15.16-18.198-3.563-4.2a8 8 0 00-6.1-2.826h-.037a8 8 0 00-6.112 2.878l-18.62 22.344a82 82 0 01-48.2 28.151 81.7 81.7 0 0139.089-30.8 8 8 0 00-3.667-15.444 159.156 159.156 0 01-74.4-9.837v-4.863a158.688 158.688 0 0179.419 8.391 8 8 0 007.791-13.752z" data-original="#000000" class="active-path" data-old_color="#000000" fill="#89D32A"/><path d="M104 264H88a8 8 0 000 16h16a8 8 0 000-16zm0 128a26 26 0 0020.8-41.6l-14.4-19.2a8 8 0 00-12.8 0l-14.4 19.2A26 26 0 00104 392zm-8-32l8-10.667L112 360a10 10 0 11-16 0z" data-original="#000000" class="active-path" data-old_color="#000000" fill="#89D32A"/></svg>