<svg xmlns="http://www.w3.org/2000/svg" viewBox="0 0 512 512" width="40" height="40"><path d="M362.667 88.615V64h10.667A10.66 10.66 0 00384 53.333V10.667A10.66 10.66 0 00373.333 0H138.667A10.66 10.66 0 00128 10.667v42.667A10.66 10.66 0 00138.667 64h10.667v24.615a104.127 104.127 0 00-64 96.177v284.542C85.333 492.865 104.469 512 128 512h256c23.531 0 42.667-19.135 42.667-42.667V184.792a104.126 104.126 0 00-64-96.177zM149.333 21.333h213.333v21.333H149.333V21.333zm256 448c0 11.76-9.573 21.333-21.333 21.333H128c-11.76 0-21.333-9.573-21.333-21.333V184.792a82.84 82.84 0 0156.708-78.677A10.656 10.656 0 00170.667 96V64h170.667v32c0 4.594 2.938 8.667 7.292 10.115a82.839 82.839 0 0156.708 78.677v284.541z" data-original="#000000" class="active-path" data-old_color="#000000" fill="#89D32A"/><path d="M138.667 195.458a10.66 10.66 0 0010.667-10.667 40.22 40.22 0 0127.521-38.198c5.583-1.854 8.604-7.896 6.74-13.49a10.6 10.6 0 00-13.49-6.74C144.917 134.75 128 158.24 128 184.792a10.66 10.66 0 0010.667 10.666zm173.76 103.698c-5.553 3.893-10.852 8.264-15.997 12.773 1.303-7.51 2.237-15.376 2.237-23.93 0-55.323-32.135-109.833-33.51-112.135-3.833-6.438-14.479-6.438-18.313 0-1.375 2.302-33.51 56.813-33.51 112.135 0 8.553.934 16.419 2.237 23.93-5.146-4.508-10.444-8.882-15.997-12.773-37.115-26-71.552-21.615-73.031-21.417a10.658 10.658 0 00-7.958 5.552 10.684 10.684 0 00-.167 9.698c.99 2.021 24.646 49.688 62.302 71.521 3.164 1.835 6.406 3.354 9.643 4.859-2.021.569-4.087 1.046-6.049 1.714-33.438 11.365-44.385 36.958-44.833 38.042a10.663 10.663 0 00.417 9.063 10.663 10.663 0 007.25 5.458c1 .208 14.698 3.01 31.885 3.01 13.427 0 28.99-1.708 42.26-7.719 9.471-4.28 17.47-10.273 24.042-16.309v34.704c0 5.896 4.771 10.667 10.667 10.667s10.667-4.771 10.667-10.667v-34.704c6.572 6.035 14.57 12.029 24.042 16.309 13.271 6.01 28.823 7.719 42.26 7.719 17.177 0 30.885-2.802 31.885-3.01a10.669 10.669 0 007.25-5.458 10.67 10.67 0 00.417-9.063c-.448-1.083-11.396-26.677-44.833-38.052-1.958-.665-4.022-1.141-6.04-1.707 3.233-1.505 6.473-3.022 9.634-4.855 37.656-21.833 61.313-69.5 62.302-71.521a10.68 10.68 0 00-.167-9.698 10.66 10.66 0 00-7.958-5.552c-1.44-.157-35.898-4.584-73.034 21.416zm-165.469.573c10.656 1.771 25.115 6.208 40.365 16.906 17.75 12.438 34.104 30.198 45.229 43.646-12.24-2.167-27.479-6.313-41.125-14.229-19.51-11.312-35.177-31.885-44.469-46.323zM212.5 399.5c-13.51 6.135-31.229 6.385-44.073 5.427 5.01-4.865 12.354-10.115 22.76-13.646 13.625-4.635 29.844-6.396 42.573-6.99-5.583 5.574-12.781 11.376-21.26 15.209zm45.557-46.714c-.759.962-1.371 1.766-2.057 2.654-.799-1.033-1.497-1.957-2.395-3.089-8.379-13.07-18.939-35.016-18.939-64.352 0-31.573 12.354-63.969 21.344-83.333C264.99 224 277.333 256.344 277.333 288c0 29.473-10.849 51.701-19.276 64.786zm85.516 52.141c-12.802.958-30.542.708-44.073-5.427-8.479-3.833-15.677-9.635-21.26-15.208 12.729.594 28.948 2.354 42.573 6.99 10.406 3.531 17.76 8.781 22.76 13.645zm-23-58.875c-13.646 7.917-28.896 12.063-41.135 14.229 11.104-13.438 27.448-31.188 45.24-43.646 15.271-10.708 29.74-15.146 40.396-16.906-9.272 14.417-24.918 34.969-44.501 46.323z" data-original="#000000" class="active-path" data-old_color="#000000" fill="#89D32A"/></svg>