<svg xmlns="http://www.w3.org/2000/svg" viewBox="0 0 512 512" width="40" height="40"><g data-name="Cannabis Drugs"><path d="M237.422 114.579l-87.2-87.2C95.135-27.706 0 11.423 0 89.608a87.422 87.422 0 0025.774 62.225c89.941 88.76 86.615 89.54 92.853 89.54 6.287 0 1.051 1.06 118.8-115.481a8 8 0 00-.005-11.313zm-118.795 107.48l-12.686-12.686 83.716-83.716a8 8 0 00-11.314-11.314l-83.716 83.716-57.538-57.539A71.526 71.526 0 0116 89.608C16 25.62 93.859-6.356 138.911 38.7l81.54 81.539zM423.765 1.608a87.425 87.425 0 00-62.226 25.775C272.779 117.324 272 114 272 120.235c0 6.288-1.061 1.05 115.479 118.794a8 8 0 0011.315 0l87.2-87.2C541.081 96.741 501.947 1.608 423.765 1.608zm50.911 138.912l-57.421 57.421-83.6-83.6a8 8 0 00-11.314 11.314l83.6 83.6-12.8 12.8-101.828-101.82L372.854 38.7a71.523 71.523 0 0150.911-21.088c63.988-.004 95.963 77.856 50.911 122.908zm-99.697 235.542l-47.021 5.877a194.978 194.978 0 0023.973-75.554 8.006 8.006 0 00-11.789-7.828c-18.673 10.178-38.049 31.388-57.8 63.22.053-40.53-7.865-68.34-18.568-99.551-1.871-8.265-13.731-8.275-15.6 0-9.925 28.974-18.624 56.972-18.566 99.55-19.753-31.833-39.129-53.042-57.8-63.221a8.006 8.006 0 00-11.789 7.828 195 195 0 0023.972 75.554l-47.02-5.877c-5.967-.742-14.665 5.537-3.629 20.391 6.438 8.666 24.424 26.647 65.745 33.141a104.365 104.365 0 00-33.186 36.614c-1.069 1.94-2 3.793-1.239 6.722a8 8 0 006.954 5.958c2.168.214 46.025 4.231 76.363-17.787V504a8 8 0 0016 0v-42.908c20.782 15.084 52.938 20.108 76.362 17.8a8.006 8.006 0 005.9-12.354c-8.289-14.9-19.136-27.424-33.366-36.94 48.775-7.665 74.418-35.8 70.767-47.9a8 8 0 00-8.663-5.636zM279.971 416c-9.521 0-11.012 13.769-1.719 15.813 23.065 5.074 38.164 19.789 46.821 31.357-17.448-.65-47.2-4.992-62.689-25.766a8 8 0 00-12.826 0c-15.493 20.777-45.245 25.116-62.69 25.765 8.657-11.568 23.757-26.283 46.821-31.357 9.3-2.046 7.8-15.813-1.718-15.813-26.479 0-58.8-4.785-78.813-21.79l45.821 5.728a8.01 8.01 0 007.294-12.865c-.22-.283-19.21-25.031-27.449-63.811 14.061 12.571 32.415 35.389 54.062 76.657 4.148 7.906 16.235 4.027 15.009-4.815a250.933 250.933 0 018.076-106.003 250.9 250.9 0 018.076 106c-1.227 8.845 10.862 12.72 15.008 4.815 21.648-41.268 40-64.086 54.062-76.657-8.238 38.779-27.227 63.527-27.44 63.8a8.006 8.006 0 007.286 12.876l45.82-5.728C338.777 411.211 306.462 416 279.971 416z" data-original="#000000" class="active-path" data-old_color="#000000" fill="#89D32A"/><circle cx="208" cy="216" r="8" data-original="#000000" class="active-path" data-old_color="#000000" fill="#89D32A"/><circle cx="232" cy="184" r="8" data-original="#000000" class="active-path" data-old_color="#000000" fill="#89D32A"/><circle cx="296" cy="248" r="8" data-original="#000000" class="active-path" data-old_color="#000000" fill="#89D32A"/><circle cx="312" cy="216" r="8" data-original="#000000" class="active-path" data-old_color="#000000" fill="#89D32A"/><circle cx="336" cy="240" r="8" data-original="#000000" class="active-path" data-old_color="#000000" fill="#89D32A"/><circle cx="216" cy="296" r="8" data-original="#000000" class="active-path" data-old_color="#000000" fill="#89D32A"/><circle cx="304" cy="296" r="8" data-original="#000000" class="active-path" data-old_color="#000000" fill="#89D32A"/><circle cx="328" cy="272" r="8" data-original="#000000" class="active-path" data-old_color="#000000" fill="#89D32A"/><circle cx="208" cy="264" r="8" data-original="#000000" class="active-path" data-old_color="#000000" fill="#89D32A"/><circle cx="184" cy="240" r="8" data-original="#000000" class="active-path" data-old_color="#000000" fill="#89D32A"/><circle cx="136" cy="312" r="8" data-original="#000000" class="active-path" data-old_color="#000000" fill="#89D32A"/><circle cx="376" cy="296" r="8" data-original="#000000" class="active-path" data-old_color="#000000" fill="#89D32A"/><circle cx="392" cy="328" r="8" data-original="#000000" class="active-path" data-old_color="#000000" fill="#89D32A"/><circle cx="136" cy="280" r="8" data-original="#000000" class="active-path" data-old_color="#000000" fill="#89D32A"/><circle cx="152" cy="440" r="8" data-original="#000000" class="active-path" data-old_color="#000000" fill="#89D32A"/><circle cx="360" cy="440" r="8" data-original="#000000" class="active-path" data-old_color="#000000" fill="#89D32A"/></g></svg>