<svg xmlns="http://www.w3.org/2000/svg" viewBox="0 0 512 512" width="30" height="30"><path d="M444.875 195.125l-53.333-53.333c-4.167-4.167-10.917-4.167-15.083 0-4.167 4.167-4.167 10.917 0 15.083l3.885 3.885-80.646 80.646c-13.615-9.802-28.25-17.083-43.698-21.729V21.333h10.667a10.66 10.66 0 0010.667-10.667A10.661 10.661 0 00266.667 0H160a10.66 10.66 0 00-10.667 10.667A10.66 10.66 0 00160 21.334h10.667v198.323C107.448 238.396 64 296.031 64 362.667c0 54.548 29.49 102.219 73.272 128.281-5.204.71-9.272 4.984-9.272 10.385A10.66 10.66 0 00138.667 512H288a10.66 10.66 0 0010.667-10.667c0-5.401-4.068-9.676-9.272-10.385 43.783-26.063 73.272-73.733 73.272-128.281 0-25.521-6.813-50.708-19.771-73.344l83.01-83 3.885 3.885a10.634 10.634 0 007.542 3.125c2.729 0 5.458-1.042 7.542-3.125 4.167-4.166 4.167-10.916 0-15.083zm-122.99 85.042a10.658 10.658 0 00-1.406 13.344c13.646 21.031 20.854 44.938 20.854 69.156 0 70.583-57.417 128-128 128s-128-57.417-128-128c0-59.542 40.49-110.708 98.458-124.438a10.652 10.652 0 008.208-10.375V21.333h42.667v206.521c0 4.948 3.396 9.24 8.208 10.375 18.323 4.344 35.49 12.948 51.031 25.594a10.63 10.63 0 006.729 2.396 10.64 10.64 0 007.542-3.125l87.25-87.25 15.396 15.396-88.937 88.927z" data-original="#000000" class="active-path" data-old_color="#000000" fill="#313131"/><path d="M175.458 439.125C146.188 424.563 128 395.26 128 362.667A10.66 10.66 0 00117.333 352a10.66 10.66 0 00-10.667 10.667c0 40.75 22.719 77.365 59.292 95.563a10.587 10.587 0 004.74 1.115c3.927 0 7.698-2.167 9.563-5.917 2.624-5.272.468-11.678-4.803-14.303z" data-original="#000000" class="active-path" data-old_color="#000000" fill="#313131"/></svg>