<svg xmlns="http://www.w3.org/2000/svg" viewBox="0 0 480 480" width="30" height="30"><path d="M472 48h-40V8a8 8 0 00-8-8h-48a8 8 0 00-8 8v60.688l-10.544-10.544c-25.219-25.028-65.818-25.305-91.376-.624L51.888 265.92c-25.756 25.051-26.328 66.238-1.277 91.994.211.217.423.432.637.646l9.44 9.44H8a8 8 0 00-8 8v48a8 8 0 008 8h40v40a8 8 0 008 8h48a8 8 0 008-8v-52.688l10.544 10.544c25.22 25.023 65.816 25.301 91.376.624l214.192-208.4c25.756-25.051 26.328-66.238 1.277-91.994a64.67 64.67 0 00-.637-.646L411.312 112H472a8 8 0 008-8V56a8 8 0 00-8-8zM277.232 68.992c19.275-18.611 49.889-18.405 68.912.464L372.688 96h-123.2l27.744-27.008zM96 464H64v-40a8 8 0 00-8-8H16v-32h60.688L96 403.312V464zm106.768-44.992c-19.273 18.615-49.891 18.409-68.912-.464L131.312 416h74.552l-3.096 3.008zM222.304 400H115.312l-32-32H255.2l-32.896 32zm49.336-48H67.312l-4.752-4.752a48.722 48.722 0 01-14.4-35.024c.048-2.759.323-5.51.824-8.224h272l-49.344 48zm65.776-64H54.8a49.382 49.382 0 018.24-10.608L101.472 240h285.28l-49.336 48zm94.376-112a48.703 48.703 0 01-14.832 34.608L403.2 224H117.92l49.328-48h264.544zm-14.352-35.248A48.802 48.802 0 01429.288 160h-245.6l49.328-48h155.672l28.752 28.752zM464 96h-68.688L384 84.688V16h32v40a8 8 0 008 8h40v32z" data-original="#000000" class="active-path" data-old_color="#000000" fill="#313131"/></svg>