<svg xmlns="http://www.w3.org/2000/svg" height="30" viewBox="-34 0 511 511.999" width="30"><path d="M325.074 238.629c-5.523 0-10.004-4.469-10.004-9.984 0-5.512 4.473-9.98 9.996-9.98h.008c5.524 0 10 4.468 10 9.98 0 5.515-4.476 9.984-10 9.984zm0 0" data-original="#000000" class="active-path" data-old_color="#000000" fill="#313131"/><path d="M441.23 101.629c-45.144-41.027-84.058-59.074-115.632-53.656-9.582 1.648-17.102 5.273-22.832 9.265C298.12 40.45 289.44 22.012 274.09 3.594c-3.531-4.23-9.84-4.809-14.082-1.29a9.977 9.977 0 00-1.29 14.067c20.243 24.266 29.895 51.227 28.665 80.125a91.115 91.115 0 01-.172 3.027c-.008.188-.027.387-.04.579-.698 9.343-2.468 17.23-4.16 22.98a72.906 72.906 0 01-.929 2.973 179.854 179.854 0 00-38.285-4.114c-21.324 0-42.715 3.774-63.34 11.352-34.703 12.758-61.805 33.738-80.547 62.367-17.293 26.414-26.805 58.235-28.293 94.59-.043.309-.07.629-.09.95-2.632 58.144-40.465 91.105-52.898 101.937-21.762 18.965-24.102 43.71-6.102 64.574C51.145 502.457 112.66 512 158.078 512h1.598c58.129-.29 112.254-15.691 140.937-28.79 44.375-20.26 82.313-57.097 104.063-101.046 23.004-46.476 26.496-96.707 9.832-141.445-16.98-45.578-50.625-81.836-94.742-102.086a186.57 186.57 0 00-18.371-7.278c.89-2.765 1.808-6.02 2.66-9.695 15.652 12.48 34.761 18.828 56.625 18.828 8.164 0 16.703-.89 25.586-2.664 29.562-5.922 52.472-19.707 53.433-20.293a9.978 9.978 0 004.75-7.566 9.918 9.918 0 00-3.219-8.336zm-129.824 55.14c39.274 18.028 69.23 50.31 84.352 90.907 14.719 39.527 11.52 84.156-9.012 125.644-19.754 39.907-54.18 73.348-94.453 91.735-26.883 12.277-77.77 26.71-132.715 26.98-41.363.188-97.8-7.848-131.894-47.355-10.762-12.477-9.383-24.758 4.109-36.516 9.352-8.152 23.184-21.129 35.164-39.586 14.852-22.871 23.082-48.226 24.504-75.394.059-.372.09-.75.11-1.141 1.21-33.117 9.652-61.879 25.081-85.465a132.215 132.215 0 0130.016-32.422c11.82-9.113 25.41-16.508 40.703-22.129 40.715-14.965 84.762-13.277 124.035 4.743zm70.426-38.421c-31.73 6.238-56.766-.86-74.457-21.094.21-5.14.14-10.82-.41-16.918 2.86-3.652 9.87-10.742 22.512-12.766 15.992-2.558 43.796 2.582 87.382 39.266-8.664 3.957-21.113 8.777-35.027 11.512zm0 0" data-original="#000000" class="active-path" data-old_color="#000000" fill="#313131"/><path d="M277.164 443.992a10.007 10.007 0 01-9.101-5.832c-2.297-5.012-.086-10.937 4.933-13.23 28.938-13.215 53.672-37.239 67.863-65.91 14.704-29.707 17.008-61.625 6.489-89.872-1.926-5.164.71-10.91 5.89-12.832 5.172-1.921 10.934.711 12.86 5.88 12.46 33.449 9.863 70.976-7.305 105.667-16.191 32.715-44.43 60.133-77.473 75.223a10.014 10.014 0 01-4.156.906zm0 0" data-original="#000000" class="active-path" data-old_color="#000000" fill="#313131"/></svg>