<svg xmlns="http://www.w3.org/2000/svg" viewBox="0 0 512 512" width="30" height="30"><path d="M376.62 452.899c-.714 0-1.426.015-2.135.043-15.406-50.368-61.835-85-115.108-85-1.547 0-3.088.032-4.626.091-.512.02-1.019.061-1.53.087-1.023.053-2.046.102-3.063.181-.609.047-1.213.116-1.82.172-.913.085-1.828.164-2.737.269-.646.075-1.288.171-1.932.256-.863.114-1.726.224-2.584.356-.665.103-1.324.225-1.986.339-.83.143-1.661.282-2.486.442-.673.13-1.339.279-2.009.42-.807.171-1.614.339-2.415.526-.675.158-1.344.331-2.015.5-.788.198-1.576.395-2.358.609-.672.184-1.338.382-2.006.577-.772.226-1.544.451-2.31.692-.667.21-1.329.432-1.992.653-.731.244-1.463.487-2.188.745.18-1.014.365-2.028.581-3.046l13.373-62.891 27.839 5.917-.862 6.795c-2.471 19.491 10.648 37.96 29.865 42.045 2.607.554 5.22.821 7.803.821 16.451 0 31.682-10.824 36.582-27.083l1.976-6.557 27.839 5.918-10.391 48.88a7.502 7.502 0 007.344 9.062 7.505 7.505 0 007.33-5.943l11.951-56.216a7.5 7.5 0 00-5.778-8.897l-33.951-7.216 1.805-5.988a7.502 7.502 0 00-5.623-9.502l-22.396-4.761-19.928-4.236 43.468-204.505a73.957 73.957 0 004.814 1.574l.173.053c.705.202 1.416.39 2.13.572.135.035.27.074.405.108a74.67 74.67 0 002.29.529c.084.018.168.04.252.058a73.41 73.41 0 003.408.631 74.63 74.63 0 003.941.543c.226.025.451.05.677.073.781.078 1.564.148 2.347.201l-39.11 184.003a7.5 7.5 0 005.777 8.896 7.5 7.5 0 008.897-5.777l39.899-187.711c17.843-2.554 34.417-11.611 46.349-26.042l.051-.058.035-.041c.029-.035.05-.073.078-.109a7.452 7.452 0 00.865-1.374c.037-.076.077-.15.111-.227.117-.261.222-.527.308-.801.012-.038.019-.077.031-.116.057-.192.113-.385.154-.583l6.027-28.352a7.5 7.5 0 00-5.777-8.896L307.286.166a7.5 7.5 0 00-8.897 5.777l-6.027 28.351a7.671 7.671 0 00-.097.598c-.005.039-.014.076-.018.115a7.275 7.275 0 00-.044.86c0 .083.006.165.009.247a7.128 7.128 0 00.086.91c.038.24.088.478.149.713.01.039.014.08.025.119l.017.056.014.047c5.03 18.05 16.482 33.091 31.754 42.685l-44.253 208.197-7.213-1.533a7.499 7.499 0 00-9 6.394l-.786 6.203-33.95-7.216a7.5 7.5 0 00-8.896 5.777l-14.933 70.233a105.453 105.453 0 00-1.948 13.201c-.128.067-.253.139-.38.207a124.114 124.114 0 00-3.899 2.171c-.609.354-1.216.711-1.819 1.076-.669.404-1.332.818-1.993 1.235-.596.376-1.19.754-1.779 1.14-.654.429-1.3.867-1.945 1.308-.581.397-1.161.795-1.735 1.202-.639.453-1.27.917-1.9 1.383-.564.417-1.128.833-1.685 1.26-.624.478-1.239.968-1.854 1.459-.547.436-1.094.87-1.633 1.315-.609.503-1.207 1.019-1.806 1.533-.528.454-1.059.904-1.579 1.367-.594.529-1.176 1.072-1.76 1.612-.507.47-1.018.935-1.517 1.413-.581.557-1.148 1.128-1.718 1.696-.484.483-.974.96-1.45 1.452-.57.587-1.124 1.19-1.681 1.79-.457.491-.921.976-1.371 1.475-.564.627-1.111 1.27-1.662 1.909-.424.492-.856.975-1.273 1.474-.575.689-1.131 1.396-1.692 2.098-.372.466-.754.923-1.119 1.396-.668.864-1.314 1.746-1.959 2.629-.239.327-.489.645-.725.975a118.61 118.61 0 00-2.543 3.7c-.269.408-.522.827-.786 1.239-.55.856-1.103 1.71-1.632 2.582-.315.519-.612 1.051-.919 1.575-.458.78-.92 1.556-1.361 2.348-.316.568-.614 1.149-.922 1.723-.409.764-.823 1.525-1.216 2.299-.305.601-.592 1.213-.887 1.82-.372.764-.747 1.526-1.104 2.299-.288.625-.558 1.26-.836 1.892-.271.616-.554 1.223-.815 1.845a61.806 61.806 0 00-1.828-.026c-34.58 0-62.713 28.137-62.713 62.722a7.501 7.501 0 007.501 7.501h329.446a7.5 7.5 0 007.501-7.501c-.01-28.446-23.158-51.594-51.61-51.594zM308.596 30.076l2.907-13.678 100.318 21.323-2.906 13.679-100.319-21.324zm3.246 16.027l87.59 18.618a58.482 58.482 0 01-31.974 12.12c-.034.002-.068-.002-.103.001-.261.017-.522.024-.783.037a57.85 57.85 0 01-2.878.079 58.15 58.15 0 01-2.469-.044c-.269-.011-.538-.03-.807-.045a58.644 58.644 0 01-2.165-.157c-.239-.022-.478-.04-.717-.065a58.04 58.04 0 01-2.699-.345c-.222-.033-.443-.07-.665-.106a59.718 59.718 0 01-2.841-.523 58.74 58.74 0 01-2.826-.682c-.206-.054-.412-.108-.616-.164a59.562 59.562 0 01-2.64-.793c-.208-.068-.414-.142-.621-.212a57.194 57.194 0 01-2.139-.773c-.224-.086-.45-.167-.673-.256a58.623 58.623 0 01-2.332-.989c-.313-.14-.623-.285-.933-.43a57.61 57.61 0 01-1.711-.838c-.207-.105-.416-.205-.621-.313-.027-.014-.056-.024-.083-.038a58.456 58.456 0 01-24.294-24.082zM275.13 323.522l2.516-19.843 31.889 6.778 9.797 2.082.004.001 6.57 1.396-5.772 19.152c-3.437 11.402-15.253 18.391-26.902 15.919-11.649-2.477-19.6-13.671-18.102-25.485zM99.362 496.998c3.438-21.686 21.539-38.546 43.788-40.092a120.191 120.191 0 00-4.002 25.11 7.5 7.5 0 1014.981.775 104.766 104.766 0 016.195-30.527c15.101-41.462 54.907-69.319 99.053-69.319 48.564 0 90.628 32.869 102.296 79.93a7.502 7.502 0 008.607 5.578 35.913 35.913 0 016.341-.552c17.609 0 32.355 12.502 35.825 29.097H99.362z" data-original="#000000" class="active-path" data-old_color="#000000" fill="#313131"/></svg>